<svg width="1338" height="208" viewBox="0 0 1338 208" fill="none" xmlns="http://www.w3.org/2000/svg">
<path d="M337.914 159H305.102C300.365 159 296.972 157.95 294.921 155.851C292.919 153.702 291.918 150.309 291.918 145.67V64.957C291.918 60.2207 292.943 56.8271 294.994 54.7764C297.094 52.6768 300.463 51.627 305.102 51.627H339.892C345.019 51.627 349.462 51.9443 353.222 52.5791C356.981 53.2139 360.351 54.4346 363.329 56.2412C365.868 57.7549 368.114 59.6836 370.067 62.0273C372.021 64.3223 373.51 66.8857 374.535 69.7178C375.561 72.501 376.073 75.4551 376.073 78.5801C376.073 89.3223 370.702 97.1836 359.96 102.164C374.071 106.656 381.127 115.396 381.127 128.385C381.127 134.391 379.589 139.811 376.513 144.645C373.437 149.43 369.286 152.97 364.062 155.265C360.79 156.632 357.03 157.608 352.782 158.194C348.534 158.731 343.578 159 337.914 159ZM336.303 111.319H313.671V142.667H337.035C351.732 142.667 359.081 137.369 359.081 126.773C359.081 121.354 357.177 117.423 353.368 114.981C349.56 112.54 343.871 111.319 336.303 111.319ZM313.671 67.96V95.7188H333.593C339.013 95.7188 343.188 95.2061 346.117 94.1807C349.096 93.1553 351.366 91.2021 352.929 88.3213C354.149 86.2705 354.76 83.9756 354.76 81.4365C354.76 76.0166 352.831 72.4277 348.974 70.6699C345.116 68.8633 339.232 67.96 331.322 67.96H313.671ZM451.765 49.7959C462.897 49.7959 472.443 52.0664 480.402 56.6074C488.41 61.0996 494.465 67.5205 498.566 75.8701C502.668 84.1709 504.719 93.9365 504.719 105.167C504.719 113.468 503.596 121.012 501.35 127.799C499.104 134.586 495.734 140.47 491.242 145.45C486.75 150.431 481.232 154.239 474.689 156.876C468.146 159.513 460.651 160.831 452.204 160.831C443.806 160.831 436.286 159.488 429.646 156.803C423.005 154.068 417.463 150.235 413.02 145.304C408.576 140.372 405.207 134.439 402.912 127.506C400.666 120.572 399.543 113.077 399.543 105.021C399.543 96.7686 400.715 89.2002 403.059 82.3154C405.451 75.4307 408.894 69.5713 413.386 64.7373C417.878 59.9033 423.347 56.2168 429.792 53.6777C436.237 51.0898 443.562 49.7959 451.765 49.7959ZM482.673 105.021C482.673 97.1592 481.403 90.3477 478.864 84.5859C476.325 78.8242 472.688 74.4785 467.951 71.5488C463.264 68.5703 457.868 67.0811 451.765 67.0811C447.419 67.0811 443.391 67.9111 439.68 69.5713C436.018 71.1826 432.844 73.5508 430.158 76.6758C427.521 79.8008 425.422 83.8047 423.859 88.6875C422.346 93.5215 421.589 98.9658 421.589 105.021C421.589 111.124 422.346 116.642 423.859 121.573C425.422 126.505 427.595 130.606 430.378 133.878C433.21 137.101 436.433 139.518 440.046 141.129C443.708 142.74 447.712 143.546 452.058 143.546C457.624 143.546 462.727 142.154 467.365 139.371C472.053 136.588 475.764 132.291 478.498 126.48C481.281 120.67 482.673 113.517 482.673 105.021ZM556.167 62.833L597.988 126.114V62.2471C597.988 58.0967 598.867 54.9961 600.625 52.9453C602.432 50.8457 604.849 49.7959 607.876 49.7959C611.001 49.7959 613.467 50.8457 615.273 52.9453C617.08 54.9961 617.983 58.0967 617.983 62.2471V146.695C617.983 156.119 614.077 160.831 606.265 160.831C604.312 160.831 602.554 160.538 600.991 159.952C599.429 159.415 597.964 158.536 596.597 157.315C595.229 156.095 593.96 154.679 592.788 153.067C591.616 151.407 590.444 149.723 589.272 148.014L548.477 85.4648V148.38C548.477 152.481 547.524 155.582 545.62 157.682C543.716 159.781 541.274 160.831 538.296 160.831C535.22 160.831 532.754 159.781 530.898 157.682C529.043 155.533 528.115 152.433 528.115 148.38V65.543C528.115 62.0273 528.506 59.2686 529.287 57.2666C530.215 55.0693 531.753 53.2871 533.901 51.9199C536.05 50.5039 538.369 49.7959 540.859 49.7959C542.812 49.7959 544.473 50.1133 545.84 50.748C547.256 51.3828 548.477 52.2373 549.502 53.3115C550.576 54.3857 551.65 55.7773 552.725 57.4863C553.848 59.1953 554.995 60.9775 556.167 62.833ZM659.764 51.627H688.108C695.481 51.627 701.805 52.3105 707.078 53.6777C712.352 55.0449 717.137 57.6084 721.434 61.3682C732.615 70.9385 738.206 85.4893 738.206 105.021C738.206 111.466 737.645 117.35 736.521 122.672C735.398 127.994 733.665 132.804 731.321 137.101C728.978 141.349 725.975 145.157 722.312 148.526C719.432 151.114 716.282 153.189 712.864 154.752C709.446 156.314 705.76 157.413 701.805 158.048C697.898 158.683 693.479 159 688.548 159H660.203C656.248 159 653.27 158.414 651.268 157.242C649.266 156.021 647.947 154.337 647.312 152.188C646.727 149.991 646.434 147.159 646.434 143.692V64.957C646.434 60.2695 647.483 56.876 649.583 54.7764C651.683 52.6768 655.076 51.627 659.764 51.627ZM668.187 68.8389V141.715H684.666C688.279 141.715 691.111 141.617 693.162 141.422C695.213 141.227 697.337 140.738 699.534 139.957C701.731 139.176 703.636 138.077 705.247 136.661C712.522 130.509 716.16 119.913 716.16 104.874C716.16 94.2783 714.549 86.3438 711.326 81.0703C708.152 75.7969 704.222 72.4521 699.534 71.0361C694.847 69.5713 689.183 68.8389 682.542 68.8389H668.187ZM843.414 126.773C843.414 133.268 841.729 139.103 838.36 144.278C835.04 149.454 830.157 153.507 823.712 156.437C817.267 159.366 809.625 160.831 800.787 160.831C790.191 160.831 781.451 158.829 774.566 154.825C769.684 151.944 765.704 148.111 762.628 143.326C759.601 138.492 758.087 133.805 758.087 129.264C758.087 126.627 758.99 124.381 760.797 122.525C762.652 120.621 764.996 119.669 767.828 119.669C770.123 119.669 772.052 120.401 773.614 121.866C775.226 123.331 776.593 125.504 777.716 128.385C779.083 131.803 780.548 134.659 782.11 136.954C783.722 139.249 785.968 141.153 788.849 142.667C791.729 144.132 795.514 144.864 800.201 144.864C806.646 144.864 811.871 143.375 815.875 140.396C819.928 137.369 821.954 133.609 821.954 129.117C821.954 125.553 820.855 122.672 818.658 120.475C816.51 118.229 813.702 116.52 810.235 115.348C806.817 114.176 802.228 112.931 796.466 111.612C788.751 109.806 782.281 107.706 777.057 105.313C771.881 102.872 767.755 99.5762 764.679 95.4258C761.651 91.2266 760.138 86.0264 760.138 79.8252C760.138 73.917 761.749 68.668 764.972 64.0781C768.194 59.4883 772.857 55.9727 778.961 53.5312C785.064 51.041 792.242 49.7959 800.494 49.7959C807.086 49.7959 812.774 50.626 817.56 52.2861C822.394 53.8975 826.397 56.0703 829.571 58.8047C832.745 61.4902 835.064 64.3223 836.529 67.3008C837.994 70.2793 838.727 73.1846 838.727 76.0166C838.727 78.6045 837.799 80.9482 835.943 83.0479C834.137 85.0986 831.866 86.124 829.132 86.124C826.642 86.124 824.737 85.5137 823.419 84.293C822.149 83.0234 820.758 80.9727 819.244 78.1406C817.291 74.0879 814.947 70.9385 812.213 68.6924C809.479 66.3975 805.084 65.25 799.029 65.25C793.414 65.25 788.873 66.4951 785.406 68.9854C781.988 71.4268 780.279 74.3809 780.279 77.8477C780.279 79.9961 780.865 81.8516 782.037 83.4141C783.209 84.9766 784.82 86.3193 786.871 87.4424C788.922 88.5654 790.997 89.4443 793.097 90.0791C795.196 90.7139 798.663 91.6416 803.497 92.8623C809.552 94.2783 815.021 95.8408 819.903 97.5498C824.835 99.2588 829.01 101.334 832.428 103.775C835.895 106.217 838.58 109.317 840.484 113.077C842.438 116.788 843.414 121.354 843.414 126.773Z" fill="#E8780A"/>
<path d="M867.25 147.574V62.9795C867.25 58.585 868.251 55.2891 870.253 53.0918C872.255 50.8945 874.843 49.7959 878.017 49.7959C881.288 49.7959 883.925 50.8945 885.927 53.0918C887.978 55.2402 889.003 58.5361 889.003 62.9795V147.574C889.003 152.018 887.978 155.338 885.927 157.535C883.925 159.732 881.288 160.831 878.017 160.831C874.892 160.831 872.304 159.732 870.253 157.535C868.251 155.289 867.25 151.969 867.25 147.574ZM946.237 62.833L988.059 126.114V62.2471C988.059 58.0967 988.938 54.9961 990.695 52.9453C992.502 50.8457 994.919 49.7959 997.946 49.7959C1001.07 49.7959 1003.54 50.8457 1005.34 52.9453C1007.15 54.9961 1008.05 58.0967 1008.05 62.2471V146.695C1008.05 156.119 1004.15 160.831 996.335 160.831C994.382 160.831 992.624 160.538 991.062 159.952C989.499 159.415 988.034 158.536 986.667 157.315C985.3 156.095 984.03 154.679 982.858 153.067C981.687 151.407 980.515 149.723 979.343 148.014L938.547 85.4648V148.38C938.547 152.481 937.595 155.582 935.69 157.682C933.786 159.781 931.345 160.831 928.366 160.831C925.29 160.831 922.824 159.781 920.969 157.682C919.113 155.533 918.186 152.433 918.186 148.38V65.543C918.186 62.0273 918.576 59.2686 919.357 57.2666C920.285 55.0693 921.823 53.2871 923.972 51.9199C926.12 50.5039 928.439 49.7959 930.93 49.7959C932.883 49.7959 934.543 50.1133 935.91 50.748C937.326 51.3828 938.547 52.2373 939.572 53.3115C940.646 54.3857 941.721 55.7773 942.795 57.4863C943.918 59.1953 945.065 60.9775 946.237 62.833ZM1049.83 51.627H1078.18C1085.55 51.627 1091.88 52.3105 1097.15 53.6777C1102.42 55.0449 1107.21 57.6084 1111.5 61.3682C1122.69 70.9385 1128.28 85.4893 1128.28 105.021C1128.28 111.466 1127.71 117.35 1126.59 122.672C1125.47 127.994 1123.74 132.804 1121.39 137.101C1119.05 141.349 1116.04 145.157 1112.38 148.526C1109.5 151.114 1106.35 153.189 1102.93 154.752C1099.52 156.314 1095.83 157.413 1091.88 158.048C1087.97 158.683 1083.55 159 1078.62 159H1050.27C1046.32 159 1043.34 158.414 1041.34 157.242C1039.34 156.021 1038.02 154.337 1037.38 152.188C1036.8 149.991 1036.5 147.159 1036.5 143.692V64.957C1036.5 60.2695 1037.55 56.876 1039.65 54.7764C1041.75 52.6768 1045.15 51.627 1049.83 51.627ZM1058.26 68.8389V141.715H1074.74C1078.35 141.715 1081.18 141.617 1083.23 141.422C1085.28 141.227 1087.41 140.738 1089.6 139.957C1091.8 139.176 1093.71 138.077 1095.32 136.661C1102.59 130.509 1106.23 119.913 1106.23 104.874C1106.23 94.2783 1104.62 86.3438 1101.4 81.0703C1098.22 75.7969 1094.29 72.4521 1089.6 71.0361C1084.92 69.5713 1079.25 68.8389 1072.61 68.8389H1058.26ZM1152.77 147.574V62.9795C1152.77 58.585 1153.77 55.2891 1155.77 53.0918C1157.78 50.8945 1160.36 49.7959 1163.54 49.7959C1166.81 49.7959 1169.45 50.8945 1171.45 53.0918C1173.5 55.2402 1174.52 58.5361 1174.52 62.9795V147.574C1174.52 152.018 1173.5 155.338 1171.45 157.535C1169.45 159.732 1166.81 160.831 1163.54 160.831C1160.41 160.831 1157.83 159.732 1155.77 157.535C1153.77 155.289 1152.77 151.969 1152.77 147.574ZM1272.12 146.842L1266.99 133.365H1223.34L1218.21 147.135C1216.21 152.506 1214.5 156.144 1213.08 158.048C1211.67 159.903 1209.35 160.831 1206.12 160.831C1203.39 160.831 1200.97 159.83 1198.87 157.828C1196.77 155.826 1195.72 153.556 1195.72 151.017C1195.72 149.552 1195.97 148.038 1196.46 146.476C1196.94 144.913 1197.75 142.74 1198.87 139.957L1226.34 70.2305C1227.12 68.2285 1228.05 65.8359 1229.12 63.0527C1230.25 60.2207 1231.42 57.877 1232.64 56.0215C1233.91 54.166 1235.54 52.6768 1237.54 51.5537C1239.6 50.3818 1242.11 49.7959 1245.09 49.7959C1248.12 49.7959 1250.63 50.3818 1252.63 51.5537C1254.68 52.6768 1256.32 54.1416 1257.54 55.9482C1258.81 57.7549 1259.86 59.708 1260.69 61.8076C1261.57 63.8584 1262.67 66.6172 1263.99 70.084L1292.04 139.371C1294.23 144.645 1295.33 148.478 1295.33 150.87C1295.33 153.36 1294.28 155.655 1292.18 157.755C1290.13 159.806 1287.64 160.831 1284.71 160.831C1283 160.831 1281.54 160.514 1280.32 159.879C1279.1 159.293 1278.07 158.487 1277.24 157.462C1276.41 156.388 1275.51 154.776 1274.53 152.628C1273.6 150.431 1272.8 148.502 1272.12 146.842ZM1229.05 117.032H1261.13L1244.94 72.7207L1229.05 117.032Z" fill="#02AFD6"/>
<g clip-path="url(#clip0)">
<path d="M1307.71 56.7182V35.7548H1316.62C1318.86 35.7548 1320.48 35.9433 1321.5 36.3204C1322.51 36.6986 1323.37 37.4075 1323.94 38.3332C1324.56 39.3229 1324.87 40.4701 1324.85 41.6362C1324.85 43.2102 1324.39 44.5092 1323.47 45.533C1322.54 46.5569 1321.16 47.203 1319.32 47.4714C1320.16 47.9435 1320.92 48.5363 1321.59 49.2306C1322.18 49.868 1322.99 51.0018 1324 52.6322L1326.56 56.7222H1321.5L1318.43 52.1652C1317.35 50.5349 1316.6 49.5077 1316.2 49.0836C1315.85 48.6947 1315.42 48.3956 1314.93 48.2121C1314.48 48.0531 1313.77 47.9746 1312.8 47.9746H1311.94V56.7263L1307.71 56.7182ZM1311.93 44.6212H1315.07C1317.1 44.6212 1318.37 44.5353 1318.87 44.3636C1319.35 44.2092 1319.77 43.8974 1320.06 43.478C1320.36 43.0093 1320.51 42.4602 1320.49 41.9039C1320.52 41.2841 1320.31 40.6755 1319.92 40.1951C1319.5 39.7407 1318.94 39.4496 1318.33 39.3738C1317.98 39.3255 1316.95 39.3014 1315.24 39.3014H1311.93V44.6212Z" fill="#0AADD8"/>
<path d="M1316 68C1311.65 68 1307.4 66.7097 1303.78 64.2923C1300.16 61.8749 1297.34 58.439 1295.67 54.419C1294.01 50.399 1293.57 45.9756 1294.42 41.708C1295.27 37.4404 1297.37 33.5204 1300.44 30.4436C1303.52 27.3669 1307.44 25.2716 1311.71 24.4227C1315.98 23.5738 1320.4 24.0095 1324.42 25.6746C1328.44 27.3397 1331.87 30.1595 1334.29 33.7774C1336.71 37.3953 1338 41.6488 1338 46C1337.99 51.8328 1335.67 57.4248 1331.55 61.5492C1327.42 65.6737 1321.83 67.9936 1316 68V68ZM1316 27.7559C1312.39 27.7563 1308.86 28.8266 1305.86 30.8315C1302.86 32.8365 1300.53 35.6859 1299.15 39.0196C1297.77 42.3533 1297.4 46.0216 1298.11 49.5604C1298.81 53.0993 1300.55 56.3499 1303.1 58.9012C1305.65 61.4525 1308.9 63.1899 1312.44 63.8936C1315.98 64.5974 1319.65 64.236 1322.98 62.8551C1326.32 61.4742 1329.17 59.1358 1331.17 56.1356C1333.18 53.1354 1334.25 49.6082 1334.25 46C1334.24 41.1626 1332.32 36.5249 1328.9 33.1046C1325.48 29.6843 1320.84 27.7607 1316 27.7559V27.7559Z" fill="#02ADD8"/>
</g>
<g clip-path="url(#clip1)">
<path d="M72.1055 89.6741C70.2238 91.989 57.5112 106.421 34.6967 104.367C9.9048 102.13 4.05929 78.3422 7.30015 64.7284C10.4006 51.6964 20.6788 30.2622 52.1048 22.8286C52.4542 22.7446 52.5229 22.9065 52.1944 23.0775C39.5834 29.7014 19.8693 47.0035 23.5612 71.4544C27.2651 95.9772 55.5428 99.9084 72.007 89.5901C72.1205 89.5121 72.2668 89.4761 72.1055 89.6741Z" fill="#E8780A"/>
<path d="M3.83504 83.4839C2.79856 75.4296 1.90247 68.5447 5.46294 58.5113C10.1286 45.3653 21.9301 24.9267 54.1506 19.3132C86.3711 13.6998 96.6911 38.9423 92.5571 66.6646C88.4232 94.387 76.3916 129.447 85.8484 161.907C91.5057 181.326 107.922 190.298 110.751 191.717C111.02 191.851 111.049 191.803 110.867 191.561C108.917 189.111 98.3011 173.662 103.537 133.636C107.42 103.818 122.292 68.7097 112.149 31.7066C105.279 6.671 80.654 -2.77769 59.2613 0.688725C37.8686 4.15514 4.16062 24.6778 0.489628 59.7977C-1.09347 71.3695 1.48429 80.7882 3.57517 83.6339C3.68868 83.7838 3.85893 83.6668 3.83504 83.4839Z" fill="#E8780A"/>
<path d="M157.942 118.212C159.979 115.726 172.671 101.54 195.303 103.582C220.095 105.819 225.941 129.61 222.7 143.224C219.587 156.304 209.241 177.852 177.537 185.204C177.307 185.258 177.253 185.156 177.462 185.048C190.058 178.559 210.166 161.167 206.436 136.492C202.738 111.99 174.505 108.047 158.047 118.332C157.906 118.416 157.748 118.449 157.942 118.212Z" fill="#02AFD6"/>
<path d="M226.123 124.14C227.177 132.336 228.142 139.268 224.534 149.434C219.868 162.577 208.07 183.018 175.846 188.629C143.623 194.239 133.309 169.003 137.44 141.277C141.571 113.552 153.596 78.5101 144.151 46.035C138.303 25.9441 120.943 17.0472 119.007 16.1086C118.894 16.0517 118.876 16.0817 118.953 16.1956C120.339 18.2167 133.046 38.0856 127.615 79.6946C123.714 109.513 109.004 140.267 119.15 177.261C126.02 202.297 149.358 210.72 170.75 207.247C192.143 203.775 225.851 183.258 229.522 148.135C231.15 136.243 228.378 126.626 226.26 124.08C226.252 124.062 226.238 124.048 226.219 124.04C226.201 124.033 226.18 124.033 226.162 124.041C226.143 124.049 226.129 124.064 226.122 124.083C226.115 124.101 226.115 124.122 226.123 124.14Z" fill="#02AFD6"/>
</g>
<defs>
<clipPath id="clip0">
<rect width="44" height="44" fill="white" transform="translate(1294 24)"/>
</clipPath>
<clipPath id="clip1">
<rect width="230" height="208" fill="white"/>
</clipPath>
</defs>
</svg>
